PathFileType	4	(X/Y/Z)	D:\TRACE\v60_Jaco2_6-2-23\JustArmDRS_Motion3_4-platform.trc
DataRate	CameraRate	NumFrames	NumMarkers	Units	OrigDataRate	OrigDataStartFrame	OrigNumFrames
100.00	100.00	      67	5	mm	100.00	1751	      7000
Frame#	Time	Left_Front			Right_Front			Left_Aft			Right_Aft			Post			
		X1	Y1	Z1	X2	Y2	Z2	X3	Y3	Z3	X4	Y4	Z4	X5	Y5	Z5	

1751	17.500	-804.85040	8.01988	-651.87317	765.31232	6.47385	-628.79089	-736.69257	12.46773	482.32266	678.57623	9.87674	587.99213	-8.93852	1305.33374	-966.93152	
1752	17.510	-804.90820	8.18455	-651.82666	765.26440	6.65082	-628.73773	-736.67938	12.35147	482.40475	678.49249	9.73925	588.02460	-9.07286	1305.57544	-966.63776	
1753	17.520	-804.87592	8.25300	-651.79260	765.22150	6.72982	-628.71991	-736.72528	12.25764	482.48358	678.35455	9.55625	588.11194	-9.15218	1305.74658	-966.52936	
1754	17.530	-804.85956	8.27910	-651.74335	765.23529	6.79810	-628.73682	-736.64374	12.09075	482.52496	678.20502	9.31607	588.13586	-9.22175	1305.88879	-966.30963	
1755	17.540	-804.84613	8.41709	-651.71576	765.20087	6.93375	-628.77368	-736.69153	11.97824	482.63495	678.15594	9.23317	588.20673	-9.29369	1306.08911	-966.07379	
1756	17.550	-804.85333	8.61252	-651.72693	765.10870	7.09578	-628.76093	-736.64117	11.90366	482.61752	678.07489	9.19713	588.20013	-9.12955	1306.34021	-965.86365	
1757	17.560	-804.80920	8.69541	-651.67688	765.12592	7.24188	-628.71381	-736.70667	11.82605	482.66156	678.08124	9.10207	588.21362	-9.09128	1306.59595	-965.71619	
1758	17.570	-804.81348	8.80455	-651.65356	765.08472	7.39077	-628.69214	-736.70935	11.71135	482.70111	678.04144	8.99407	588.28302	-8.99556	1306.71741	-965.54822	
1759	17.580	-804.77124	8.85615	-651.64337	765.06207	7.51201	-628.66718	-736.68152	11.63566	482.76181	677.98151	8.88590	588.31274	-9.03197	1306.80371	-965.35345	
1760	17.590	-804.98688	8.73641	-651.95892	765.11377	7.59409	-628.57819	-736.70245	11.53997	482.77036	677.97192	8.77366	588.38837	-9.00572	1306.85608	-965.12299	
1761	17.600	-805.06696	8.93064	-651.80048	765.14038	7.69233	-628.54822	-736.69623	11.49489	482.76712	677.87677	8.65307	588.37427	-9.06861	1306.95239	-964.79108	
1762	17.610	-805.07819	9.05736	-651.54645	765.18878	7.82300	-628.41302	-736.75769	11.42657	482.73859	677.89874	8.54233	588.42072	-9.13831	1307.13306	-964.43652	
1763	17.620	-805.14502	8.94209	-651.45374	765.10541	7.90089	-628.48608	-736.80707	11.37249	482.75522	677.87769	8.48185	588.45245	-9.17914	1307.34595	-964.15662	
1764	17.630	-804.94006	9.06435	-651.17365	765.13928	8.01952	-628.36841	-736.85229	11.26913	482.74924	677.82428	8.41796	588.47681	-9.28552	1307.66443	-963.78308	
1765	17.640	-804.95355	9.12162	-651.21649	765.04816	8.13945	-628.41656	-736.88043	11.14724	482.78815	677.76251	8.34619	588.52899	-9.42038	1307.93347	-963.38104	
1766	17.650	-804.92035	9.21409	-651.26373	765.09888	8.24958	-628.36975	-736.92804	11.06030	482.85938	677.71222	8.32824	588.57837	-9.49403	1308.16357	-963.09698	
1767	17.660	-804.82770	9.30117	-651.37891	765.08636	8.38834	-628.34705	-736.92633	10.93874	482.81537	677.74042	8.27905	588.63080	-9.48902	1308.32483	-962.83679	
1768	17.670	-804.78040	9.40077	-651.44769	765.05585	8.46733	-628.32745	-736.97040	10.87434	482.86682	677.74475	8.22179	588.69409	-9.50985	1308.51611	-962.53381	
1769	17.680	-804.72845	9.40566	-651.49896	764.99744	8.49689	-628.27991	-737.01208	10.77296	482.88596	677.69421	8.16840	588.68536	-9.45477	1308.66541	-962.39124	
1770	17.690	-804.82727	9.41910	-651.42694	764.90125	8.55842	-628.23755	-737.03076	10.69185	482.91843	677.67108	8.14621	588.72491	-9.40812	1308.69910	-962.19019	
1771	17.700	-804.57013	9.37115	-650.92230	764.81287	8.65134	-628.18085	-737.11292	10.59606	482.97980	677.56647	8.09141	588.75903	-9.45144	1308.79199	-962.00281	
1772	17.710	-804.65613	9.48244	-650.75977	764.79108	8.75763	-628.16052	-737.13501	10.53042	482.99551	677.54755	8.03392	588.75800	-9.54213	1308.86450	-961.98944	
1773	17.720	-804.69464	9.51232	-650.61108	764.67761	8.81747	-628.18616	-737.19269	10.50782	483.02435	677.44934	7.96875	588.81311	-9.56217	1308.93677	-962.01776	
1774	17.730	-804.77136	9.50885	-650.30164	764.62659	8.89439	-628.20209	-737.20831	10.46158	483.03265	677.43903	7.95312	588.83612	-9.61530	1308.97522	-961.95093	
1775	17.740	-805.88025	11.09475	-650.83997	764.59271	8.93384	-628.18323	-737.25647	10.39167	483.07623	677.24689	7.87410	588.90381	-9.69159	1309.01709	-961.98889	
1776	17.750	-806.16443	11.12021	-650.86011	764.45001	8.95644	-628.21832	-737.33130	10.31356	483.13818	677.16302	7.82309	588.87640	-9.74486	1309.06042	-961.92194	
1777	17.760	-806.14435	11.18262	-650.78796	764.66620	9.17406	-628.07404	-737.40021	10.27161	483.11691	677.20215	7.80873	588.91534	-9.78845	1309.09058	-961.79529	
1778	17.770	-806.19159	11.23919	-650.81152	764.63898	9.22944	-628.09503	-737.39301	10.28687	483.14554	677.01117	7.74894	588.92780	-9.82157	1309.16455	-961.58698	
1779	17.780	-806.21057	11.33614	-650.79230	764.56097	9.26115	-628.08875	-737.47534	10.28088	483.11517	677.10553	7.76246	588.91119	-9.95469	1309.16980	-961.37665	
1780	17.790	-806.31378	11.32952	-650.79828	764.49530	9.26629	-628.09332	-737.53937	10.21429	483.12305	677.04199	7.77138	588.93933	-9.93639	1309.19153	-961.22052	
1781	17.800	-806.43134	11.20973	-650.78723	764.39447	9.27829	-628.09442	-737.61340	10.23164	483.12759	676.94226	7.74006	588.90741	-10.01098	1309.22229	-961.09827	
1782	17.810	-806.57098	11.17191	-650.76019	764.35266	9.24936	-628.06873	-737.67169	10.24100	483.17325	676.76349	7.68112	588.87854	-10.06695	1309.20276	-960.96375	
1783	17.820	-806.55341	10.98443	-650.59521	764.26074	9.23148	-628.07336	-737.79718	10.24244	483.14029	676.70630	7.69142	588.84186	-10.13565	1309.22717	-960.84564	
1784	17.830	-806.66437	10.95141	-650.67841	764.18732	9.21729	-628.07361	-737.85400	10.25978	483.11212	676.46082	7.70544	588.93225	-10.16191	1309.18774	-960.89624	
1785	17.840	-806.78497	10.97186	-650.72192	764.10016	9.16960	-628.03381	-737.94653	10.30758	483.11505	676.47424	7.68912	588.75739	-10.36246	1309.14465	-961.08496	
1786	17.850	-806.84442	10.88804	-650.82501	764.03375	9.13662	-628.05640	-738.01556	10.29086	483.13260	676.36877	7.73433	588.74982	-10.56508	1309.08911	-961.28589	
1787	17.860	-806.96106	10.87337	-650.87433	763.88092	9.08650	-628.05927	-738.05969	10.25490	483.13412	676.23267	7.76074	588.74176	-10.83656	1309.06897	-961.62830	
1788	17.870	-807.04913	10.88649	-650.97040	763.30902	8.80670	-628.49561	-738.20544	10.27821	483.12131	676.08392	7.80532	588.68860	-10.92113	1309.04407	-961.74005	
1789	17.880	-807.13806	10.89445	-651.07007	763.16498	8.74922	-628.52100	-738.32666	10.43411	483.06088	675.97839	7.88282	588.68695	-10.94955	1308.91187	-961.88141	
1790	17.890	-807.18604	10.87321	-651.16284	763.08813	8.65174	-628.52606	-738.51068	10.59543	482.99173	675.92755	8.03753	588.65887	-10.96898	1308.77917	-962.01312	
1791	17.900	-807.24847	10.84670	-651.19641	762.99585	8.52569	-628.58978	-738.63025	10.72922	482.97702	675.84216	8.14950	588.59650	-10.98181	1308.63733	-962.19086	
1792	17.910	-807.36102	10.79423	-651.24536	762.95911	8.34542	-628.52032	-738.78552	10.87292	482.89594	675.83960	8.30304	588.59485	-11.09096	1308.27686	-962.47491	
1793	17.920	-807.52753	10.62030	-651.32294	762.82794	8.15266	-628.53174	-738.98431	11.03368	482.91168	675.72913	8.33533	588.51764	-11.38629	1307.96533	-962.80353	
1794	17.930	-807.67493	10.45326	-651.38812	762.75793	7.98299	-628.53479	-739.12421	11.13765	482.86230	675.64783	8.46104	588.42926	-11.63928	1307.76538	-963.17163	
1795	17.940	-807.84125	10.23341	-651.55463	762.63660	7.78409	-628.53387	-739.19379	11.20389	482.85730	675.57068	8.51466	588.40161	-11.83030	1307.52002	-963.55249	
1796	17.950	-807.31458	8.61129	-651.78400	762.47894	7.62095	-628.61694	-739.30328	11.28859	482.83514	675.27472	8.68296	588.42877	-11.93184	1307.32983	-964.03247	
1797	17.960	-806.94507	8.37469	-650.94000	762.35266	7.48426	-628.69690	-739.33746	11.39393	482.75452	675.16180	8.81204	588.27271	-12.02254	1307.16919	-964.46637	
1798	17.970	-807.73230	8.36429	-651.62921	762.22217	7.33954	-628.74231	-739.45099	11.54685	482.63354	675.00543	8.89959	588.37567	-11.91074	1306.74792	-964.94318	
1799	17.980	-807.96918	7.74531	-651.92651	762.08472	7.21594	-628.80005	-739.62372	11.77722	482.51160	674.89508	9.11634	588.16449	-12.19985	1306.26404	-965.61011	
1800	17.990	-808.09979	7.52565	-651.99829	761.89813	7.01108	-628.91339	-739.75806	11.95399	482.45096	674.77435	9.23973	588.18524	-12.59030	1306.09412	-966.25854	
1801	18.000	-808.02032	7.74030	-651.70392	761.63501	6.76356	-628.95502	-739.94928	12.18416	482.37247	674.64044	9.35399	588.10577	-12.65259	1305.79248	-966.73334	
1802	18.010	-808.13470	7.59772	-651.88837	761.51483	6.50861	-628.96637	-740.10522	12.30748	482.36917	674.40436	9.62249	588.10974	-12.78772	1305.39624	-967.16443	
1803	18.020	-808.16681	7.35317	-652.13025	761.46118	6.30447	-628.95337	-740.22937	12.43178	482.37326	674.22186	9.81481	588.06512	-12.81356	1305.06543	-967.49872	
1804	18.030	-807.89191	6.88522	-651.76007	761.36334	5.91285	-629.01404	-740.30701	12.54517	482.35037	674.14178	10.15463	588.10004	-13.00645	1304.64063	-968.12378	
1805	18.040	-808.37885	6.53761	-652.30145	761.18988	5.47815	-629.09613	-740.42615	12.72699	482.23874	673.88196	10.63520	588.01392	-13.03363	1304.00671	-968.61243	
1806	18.050	-808.53198	5.78040	-652.80121	761.04907	5.15911	-629.16901	-740.55542	12.98608	482.12097	673.78217	11.13171	587.87573	-13.13427	1303.37659	-969.35193	
1807	18.060	-808.87610	6.10088	-652.15344	761.05292	4.78326	-629.24170	-740.74469	13.17294	481.99768	673.73669	11.29297	587.80389	-13.19701	1302.97766	-970.04333	
1808	18.070	-809.03015	5.83592	-652.21429	760.99811	4.45880	-629.27155	-740.92987	13.42739	481.84616	673.68719	11.40703	587.75476	-13.17938	1302.49744	-970.55695	
1809	18.080	-809.18604	5.61875	-652.27124	760.85919	4.21930	-629.34448	-741.08807	13.68829	481.73120	673.61371	11.53413	587.69250	-13.63721	1301.90161	-971.61816	
1810	18.090	-809.28290	5.11018	-652.16345	760.70490	3.78033	-629.58948	-741.33801	14.08073	481.61942	673.39410	11.92493	587.45813	-13.76756	1301.42920	-972.62970	
1811	18.100	-810.45630	3.96911	-653.93042	760.58582	3.35841	-629.67828	-741.42181	14.41058	481.53079	673.15491	12.43747	587.50031	-13.67852	1300.60498	-973.62103	
1812	18.110	-809.65051	4.43078	-652.46405	760.35059	2.96513	-629.78888	-741.42377	14.65835	481.48547	673.16107	12.71113	587.24872	-13.87860	1299.94592	-974.95398	
1813	18.120	-809.74774	4.01048	-652.59650	760.26459	2.50948	-629.91254	-741.42249	14.89755	481.41086	673.01892	12.92604	587.17365	-13.95581	1299.50781	-975.99200	
1814	18.130	-809.74420	3.48484	-652.66675	760.27264	2.09097	-629.99243	-741.47247	15.29020	481.29434	672.83484	13.27677	587.08679	-13.95014	1298.63757	-977.08636	
1815	18.140	-810.76300	2.23213	-653.77954	760.24469	1.70546	-630.01160	-741.65930	15.70164	481.11661	672.49231	13.77003	587.19214	-14.14252	1297.96887	-978.08643	
1816	18.150	-809.91077	2.79023	-652.69934	760.01385	1.13453	-630.26489	-741.71954	15.99059	481.01056	672.57300	14.24741	587.09491	-14.13522	1297.35010	-979.04395	
1817	18.160	-810.25665	2.21561	-653.06927	759.74811	0.46488	-630.40942	-741.81653	16.28191	480.98938	672.55994	14.70950	586.72192	-14.14626	1296.47766	-980.01019	
